<svg xmlns="http://www.w3.org/2000/svg" viewBox="0 0 175.45 175.43"><defs><style>.cls-1{fill:none;stroke:#fbad18;stroke-miterlimit:10;stroke-width:0.5px;}</style></defs><g id="Layer_2" data-name="Layer 2"><g id="Layer_1-2" data-name="Layer 1"><line class="cls-1" x1="84.24" y1="175.42" x2="86.93" y2="107.91"/><line class="cls-1" x1="76.28" y1="174.74" x2="85.1" y2="107.76"/><line class="cls-1" x1="68.42" y1="173.33" x2="83.29" y2="107.44"/><line class="cls-1" x1="60.72" y1="171.22" x2="81.52" y2="106.95"/><line class="cls-1" x1="53.24" y1="168.42" x2="79.8" y2="106.31"/><line class="cls-1" x1="46.04" y1="164.95" x2="78.14" y2="105.51"/><line class="cls-1" x1="39.2" y1="160.84" x2="76.57" y2="104.56"/><line class="cls-1" x1="32.75" y1="156.12" x2="75.08" y2="103.48"/><line class="cls-1" x1="26.76" y1="150.84" x2="73.71" y2="102.26"/><line class="cls-1" x1="21.28" y1="145.03" x2="72.44" y2="100.92"/><line class="cls-1" x1="16.34" y1="138.75" x2="71.31" y2="99.48"/><line class="cls-1" x1="12" y1="132.05" x2="70.31" y2="97.94"/><line class="cls-1" x1="8.28" y1="124.98" x2="69.45" y2="96.31"/><line class="cls-1" x1="5.23" y1="117.6" x2="68.75" y2="94.61"/><line class="cls-1" x1="2.85" y1="109.97" x2="68.2" y2="92.86"/><line class="cls-1" x1="1.18" y1="102.16" x2="67.82" y2="91.06"/><line class="cls-1" x1="0.23" y1="94.23" x2="67.6" y2="89.24"/><line class="cls-1" y1="86.25" x2="67.55" y2="87.4"/><line class="cls-1" x1="0.5" y1="78.28" x2="67.66" y2="85.56"/><line class="cls-1" x1="1.73" y1="70.38" x2="67.95" y2="83.75"/><line class="cls-1" x1="3.66" y1="62.63" x2="68.39" y2="81.97"/><line class="cls-1" x1="6.29" y1="55.09" x2="69" y2="80.23"/><line class="cls-1" x1="9.6" y1="47.82" x2="69.76" y2="78.56"/><line class="cls-1" x1="13.55" y1="40.88" x2="70.67" y2="76.96"/><line class="cls-1" x1="18.12" y1="34.33" x2="71.72" y2="75.45"/><line class="cls-1" x1="23.27" y1="28.22" x2="72.9" y2="74.05"/><line class="cls-1" x1="28.95" y1="22.6" x2="74.21" y2="72.76"/><line class="cls-1" x1="35.12" y1="17.53" x2="75.63" y2="71.59"/><line class="cls-1" x1="41.72" y1="13.04" x2="77.15" y2="70.55"/><line class="cls-1" x1="48.7" y1="9.16" x2="78.75" y2="69.66"/><line class="cls-1" x1="56.01" y1="5.94" x2="80.44" y2="68.92"/><line class="cls-1" x1="63.58" y1="3.39" x2="82.18" y2="68.33"/><line class="cls-1" x1="71.35" y1="1.54" x2="83.97" y2="67.91"/><line class="cls-1" x1="79.26" y1="0.41" x2="85.78" y2="67.65"/><line class="cls-1" x1="87.23" x2="87.62" y2="67.56"/><line class="cls-1" x1="95.22" y1="0.32" x2="89.46" y2="67.63"/><line class="cls-1" x1="103.13" y1="1.36" x2="91.28" y2="67.87"/><line class="cls-1" x1="110.93" y1="3.12" x2="93.07" y2="68.27"/><line class="cls-1" x1="118.52" y1="5.58" x2="94.82" y2="68.84"/><line class="cls-1" x1="125.87" y1="8.72" x2="96.51" y2="69.56"/><line class="cls-1" x1="132.9" y1="12.51" x2="98.13" y2="70.43"/><line class="cls-1" x1="139.55" y1="16.93" x2="99.66" y2="71.45"/><line class="cls-1" x1="145.77" y1="21.94" x2="101.09" y2="72.6"/><line class="cls-1" x1="151.52" y1="27.49" x2="102.41" y2="73.88"/><line class="cls-1" x1="156.73" y1="33.54" x2="103.61" y2="75.27"/><line class="cls-1" x1="161.38" y1="40.04" x2="104.68" y2="76.77"/><line class="cls-1" x1="165.41" y1="46.93" x2="105.61" y2="78.35"/><line class="cls-1" x1="168.8" y1="54.16" x2="106.39" y2="80.02"/><line class="cls-1" x1="171.52" y1="61.67" x2="107.01" y2="81.75"/><line class="cls-1" x1="173.54" y1="69.4" x2="107.48" y2="83.52"/><line class="cls-1" x1="174.85" y1="77.28" x2="107.78" y2="85.34"/><line class="cls-1" x1="175.44" y1="85.25" x2="107.91" y2="87.17"/><line class="cls-1" x1="175.31" y1="93.23" x2="107.88" y2="89.01"/><line class="cls-1" x1="174.44" y1="101.17" x2="107.69" y2="90.83"/><line class="cls-1" x1="172.86" y1="109" x2="107.32" y2="92.63"/><line class="cls-1" x1="170.58" y1="116.65" x2="106.79" y2="94.4"/><line class="cls-1" x1="167.6" y1="124.07" x2="106.11" y2="96.1"/><line class="cls-1" x1="163.97" y1="131.18" x2="105.28" y2="97.74"/><line class="cls-1" x1="159.71" y1="137.93" x2="104.3" y2="99.29"/><line class="cls-1" x1="154.84" y1="144.27" x2="103.17" y2="100.75"/><line class="cls-1" x1="149.43" y1="150.14" x2="101.93" y2="102.1"/><line class="cls-1" x1="143.5" y1="155.49" x2="100.56" y2="103.33"/><line class="cls-1" x1="137.1" y1="160.28" x2="99.09" y2="104.43"/><line class="cls-1" x1="130.3" y1="164.47" x2="97.53" y2="105.4"/><line class="cls-1" x1="123.15" y1="168.02" x2="95.88" y2="106.21"/><line class="cls-1" x1="115.7" y1="170.91" x2="94.17" y2="106.88"/><line class="cls-1" x1="108.03" y1="173.11" x2="92.4" y2="107.38"/><line class="cls-1" x1="100.18" y1="174.6" x2="90.6" y2="107.73"/><line class="cls-1" x1="92.23" y1="175.37" x2="88.77" y2="107.9"/></g></g></svg>