<svg xmlns="http://www.w3.org/2000/svg" viewBox="0 0 174.79 174.77"><defs><style>.cls-1,.cls-2{fill:none;stroke:#fbad18;stroke-miterlimit:10;}.cls-1{stroke-width:0.5px;}.cls-2{stroke-width:0.5px;}</style></defs><g id="Layer_2" data-name="Layer 2"><g id="Layer_1-2" data-name="Layer 1"><g id="_Radial_Repeat_" data-name="&lt;Radial Repeat&gt;"><line class="cls-1" x1="95.88" y1="150.02" x2="89.62" y2="107.12"/></g><g id="_Radial_Repeat_2" data-name="&lt;Radial Repeat&gt;"><line class="cls-1" x1="74.97" y1="149.45" x2="82.98" y2="106.84"/></g><g id="_Radial_Repeat_3" data-name="&lt;Radial Repeat&gt;"><line class="cls-1" x1="55.38" y1="142.13" x2="76.79" y2="104.43"/></g><g id="_Radial_Repeat_4" data-name="&lt;Radial Repeat&gt;"><line class="cls-1" x1="39.22" y1="128.84" x2="71.72" y2="100.14"/></g><g id="_Radial_Repeat_5" data-name="&lt;Radial Repeat&gt;"><line class="cls-1" x1="28.26" y1="111.03" x2="68.31" y2="94.43"/></g><g id="_Radial_Repeat_6" data-name="&lt;Radial Repeat&gt;"><line class="cls-1" x1="23.67" y1="90.62" x2="66.95" y2="87.93"/></g><g id="_Radial_Repeat_7" data-name="&lt;Radial Repeat&gt;"><line class="cls-1" x1="25.96" y1="69.83" x2="67.77" y2="81.33"/></g><g id="_Radial_Repeat_8" data-name="&lt;Radial Repeat&gt;"><line class="cls-1" x1="34.88" y1="50.91" x2="70.68" y2="75.36"/></g><g id="_Radial_Repeat_9" data-name="&lt;Radial Repeat&gt;"><line class="cls-1" x1="49.45" y1="35.91" x2="75.38" y2="70.66"/></g><g id="_Radial_Repeat_10" data-name="&lt;Radial Repeat&gt;"><line class="cls-1" x1="68.11" y1="26.45" x2="81.35" y2="67.74"/></g><g id="_Radial_Repeat_11" data-name="&lt;Radial Repeat&gt;"><line class="cls-1" x1="88.83" y1="23.56" x2="87.94" y2="66.91"/></g><g id="_Radial_Repeat_12" data-name="&lt;Radial Repeat&gt;"><line class="cls-1" x1="109.36" y1="27.56" x2="94.45" y2="68.27"/></g><g id="_Radial_Repeat_13" data-name="&lt;Radial Repeat&gt;"><line class="cls-1" x1="127.48" y1="38.01" x2="100.16" y2="71.67"/></g><g id="_Radial_Repeat_14" data-name="&lt;Radial Repeat&gt;"><line class="cls-1" x1="141.23" y1="53.78" x2="104.46" y2="76.74"/></g><g id="_Radial_Repeat_15" data-name="&lt;Radial Repeat&gt;"><line class="cls-1" x1="149.11" y1="73.15" x2="106.87" y2="82.93"/></g><g id="_Radial_Repeat_16" data-name="&lt;Radial Repeat&gt;"><line class="cls-1" x1="150.28" y1="94.04" x2="107.15" y2="89.57"/></g><g id="_Radial_Repeat_17" data-name="&lt;Radial Repeat&gt;"><line class="cls-1" x1="144.6" y1="114.17" x2="105.26" y2="95.94"/></g><g id="_Radial_Repeat_18" data-name="&lt;Radial Repeat&gt;"><line class="cls-1" x1="132.69" y1="131.37" x2="101.4" y2="101.35"/></g><g id="_Radial_Repeat_19" data-name="&lt;Radial Repeat&gt;"><line class="cls-1" x1="115.84" y1="143.76" x2="95.99" y2="105.22"/></g><g id="_Radial_Repeat_20" data-name="&lt;Radial Repeat&gt;"><line class="cls-2" x1="83.62" y1="174.76" x2="86.31" y2="107.26"/></g><g id="_Radial_Repeat_21" data-name="&lt;Radial Repeat&gt;"><line class="cls-2" x1="55.34" y1="168.87" x2="79.81" y2="105.9"/></g><g id="_Radial_Repeat_22" data-name="&lt;Radial Repeat&gt;"><line class="cls-2" x1="30.51" y1="154.12" x2="74.09" y2="102.51"/></g><g id="_Radial_Repeat_23" data-name="&lt;Radial Repeat&gt;"><line class="cls-2" x1="11.81" y1="132.11" x2="69.79" y2="97.44"/></g><g id="_Radial_Repeat_24" data-name="&lt;Radial Repeat&gt;"><line class="cls-2" x1="1.27" y1="105.22" x2="67.36" y2="91.26"/></g><g id="_Radial_Repeat_25" data-name="&lt;Radial Repeat&gt;"><line class="cls-2" x1="0.03" y1="76.36" x2="67.08" y2="84.62"/></g><g id="_Radial_Repeat_26" data-name="&lt;Radial Repeat&gt;"><line class="cls-2" x1="8.23" y1="48.67" x2="68.97" y2="78.24"/></g><g id="_Radial_Repeat_27" data-name="&lt;Radial Repeat&gt;"><line class="cls-2" x1="24.98" y1="25.13" x2="72.82" y2="72.83"/></g><g id="_Radial_Repeat_28" data-name="&lt;Radial Repeat&gt;"><line class="cls-2" x1="48.46" y1="8.31" x2="78.22" y2="68.96"/></g><g id="_Radial_Repeat_29" data-name="&lt;Radial Repeat&gt;"><line class="cls-2" x1="76.13" y1="0.03" x2="84.59" y2="67.05"/></g><g id="_Radial_Repeat_30" data-name="&lt;Radial Repeat&gt;"><line class="cls-2" x1="104.99" y1="1.18" x2="91.23" y2="67.32"/></g><g id="_Radial_Repeat_31" data-name="&lt;Radial Repeat&gt;"><line class="cls-2" x1="131.92" y1="11.64" x2="97.42" y2="69.73"/></g><g id="_Radial_Repeat_32" data-name="&lt;Radial Repeat&gt;"><line class="cls-2" x1="153.99" y1="30.27" x2="102.5" y2="74.01"/></g><g id="_Radial_Repeat_33" data-name="&lt;Radial Repeat&gt;"><line class="cls-2" x1="168.81" y1="55.07" x2="105.91" y2="79.72"/></g><g id="_Radial_Repeat_34" data-name="&lt;Radial Repeat&gt;"><line class="cls-2" x1="174.78" y1="83.33" x2="107.29" y2="86.22"/></g><g id="_Radial_Repeat_35" data-name="&lt;Radial Repeat&gt;"><line class="cls-2" x1="171.25" y1="111.99" x2="106.47" y2="92.82"/></g><g id="_Radial_Repeat_36" data-name="&lt;Radial Repeat&gt;"><line class="cls-2" x1="158.6" y1="137.96" x2="103.56" y2="98.79"/></g><g id="_Radial_Repeat_37" data-name="&lt;Radial Repeat&gt;"><line class="cls-2" x1="138.21" y1="158.42" x2="98.87" y2="103.5"/></g><g id="_Radial_Repeat_38" data-name="&lt;Radial Repeat&gt;"><line class="cls-2" x1="112.28" y1="171.14" x2="92.91" y2="106.42"/></g></g></g></svg>