<?xml version="1.0" standalone="no"?>
<!DOCTYPE svg PUBLIC "-//W3C//DTD SVG 20010904//EN"
 "http://www.w3.org/TR/2001/REC-SVG-20010904/DTD/svg10.dtd">
<svg version="1.0" xmlns="http://www.w3.org/2000/svg"
 width="512.000000pt" height="512.000000pt" viewBox="0 0 512.000000 512.000000"
 preserveAspectRatio="xMidYMid meet">
<g transform="translate(0.000000,512.000000) scale(0.100000,-0.100000)"
fill="#000000" stroke="none">
<path d="M2389 4868 c-89 -139 -195 -303 -235 -364 l-72 -112 -283 99 c-155
55 -284 98 -286 95 -2 -2 38 -269 90 -592 52 -324 94 -590 93 -591 -1 -2 -148
130 -326 292 -179 162 -327 291 -331 287 -3 -4 -15 -119 -26 -255 -12 -136
-22 -250 -24 -252 -3 -2 -188 39 -412 92 -224 53 -409 94 -412 92 -2 -3 59
-200 135 -439 77 -238 140 -439 140 -444 0 -6 -99 -58 -220 -115 -121 -57
-220 -107 -220 -112 0 -4 287 -231 638 -504 l639 -497 -71 -283 c-38 -157 -68
-286 -65 -289 3 -3 1131 177 1242 198 l27 5 0 -589 0 -590 150 0 150 0 0 590
0 590 28 -6 c120 -23 1238 -201 1241 -197 3 2 -27 131 -65 287 l-71 284 639
497 c351 273 638 500 638 504 0 4 -99 54 -220 112 -120 57 -219 109 -220 114
0 6 63 206 140 445 76 239 137 436 135 438 -2 2 -187 -39 -412 -91 -224 -53
-409 -94 -411 -92 -3 2 -13 116 -25 252 -11 136 -23 251 -26 255 -4 4 -152
-125 -330 -287 -179 -162 -325 -294 -327 -293 -1 2 41 268 93 592 52 323 92
590 90 592 -2 2 -130 -40 -283 -94 -206 -73 -282 -96 -290 -88 -7 6 -114 170
-239 364 -125 193 -231 352 -235 352 -4 0 -81 -114 -171 -252z"/>
</g>
</svg>
