<svg xmlns="http://www.w3.org/2000/svg" viewBox="0 0 100.85 100.84"><defs><style>.cls-1{fill:#efaf42;}</style></defs><g id="Layer_2" data-name="Layer 2"><g id="Layer_1-2" data-name="Layer 1"><path class="cls-1" d="M67.39,100.84A45.24,45.24,0,0,1,35.26,87.57l-.08-.07L13.34,65.67A45.57,45.57,0,0,1,13.28,1.3,4.45,4.45,0,0,1,16.38,0h0a4.39,4.39,0,0,1,3.11,1.25L41.33,23.09a4.35,4.35,0,0,1,0,6.15l-7.28,7.29a5.94,5.94,0,0,0,0,8.41L55.89,66.79a5.94,5.94,0,0,0,4.21,1.74h0a5.91,5.91,0,0,0,4.2-1.73l7.29-7.29a4.35,4.35,0,0,1,6.15,0L99.58,81.36a4.35,4.35,0,0,1,0,6.15A45.24,45.24,0,0,1,67.4,100.84ZM41.27,81.29l.09.08a36.88,36.88,0,0,0,48.82,2.88L74.66,68.74l-4.21,4.2A14.51,14.51,0,0,1,60.1,77.23h0a14.54,14.54,0,0,1-10.36-4.29L27.9,51.1a14.65,14.65,0,0,1,0-20.72l4.21-4.21L16.57,10.63a36.88,36.88,0,0,0,2.91,48.89Z"/></g></g></svg>